<?xml version="1.0" encoding="UTF-8" standalone="no"?>
<!-- Created with Inkscape (http://www.inkscape.org/) -->

<svg
   xmlns:dc="http://purl.org/dc/elements/1.1/"
   xmlns:cc="http://creativecommons.org/ns#"
   xmlns:rdf="http://www.w3.org/1999/02/22-rdf-syntax-ns#"
   xmlns:svg="http://www.w3.org/2000/svg"
   xmlns="http://www.w3.org/2000/svg"
   xmlns:sodipodi="http://sodipodi.sourceforge.net/DTD/sodipodi-0.dtd"
   xmlns:inkscape="http://www.inkscape.org/namespaces/inkscape"
   width="256"
   height="256"
   viewBox="0 0 256 256"
   id="svg2"
   version="1.1"
   inkscape:version="0.91 r13725"
   sodipodi:docname="icon.svg"
   inkscape:export-filename="/srv/svn/xenial/llx-netinstall/trunk/fuentes/admin-center-llx-netinstall.install/lliurex-netinstall/src/icons/NetinstallIcon.png"
   inkscape:export-xdpi="90"
   inkscape:export-ydpi="90">
  <defs
     id="defs4" />
  <sodipodi:namedview
     id="base"
     pagecolor="#ffffff"
     bordercolor="#666666"
     borderopacity="1.0"
     inkscape:pageopacity="0.0"
     inkscape:pageshadow="2"
     inkscape:zoom="1.4"
     inkscape:cx="207.78553"
     inkscape:cy="135.47764"
     inkscape:document-units="px"
     inkscape:current-layer="layer1"
     showgrid="false"
     units="px"
     borderlayer="true"
     inkscape:window-width="1920"
     inkscape:window-height="1028"
     inkscape:window-x="0"
     inkscape:window-y="24"
     inkscape:window-maximized="1" />
  <metadata
     id="metadata7">
    <rdf:RDF>
      <cc:Work
         rdf:about="">
        <dc:format>image/svg+xml</dc:format>
        <dc:type
           rdf:resource="http://purl.org/dc/dcmitype/StillImage" />
        <dc:title></dc:title>
      </cc:Work>
    </rdf:RDF>
  </metadata>
  <g
     inkscape:label="Layer 1"
     inkscape:groupmode="layer"
     id="layer1"
     transform="translate(0,-796.3622)">
    <g
       transform="matrix(1.2865081,0,0,0.8952094,875.237,739.72759)"
       id="vignette" />
    <g
       transform="matrix(1.2865081,0,0,0.8952094,875.237,739.72759)"
       id="shadow" />
    <circle
       style="opacity:1;fill:#1a237e;fill-opacity:1"
       id="path10641"
       cx="127.62917"
       cy="924.1322"
       r="121.05775" />
    <path
       style="opacity:1;fill:#283593;fill-opacity:1"
       d="m 128.56014,803.07517 0,242.11403 A 121.05774,121.05774 0 0 0 249.6182,924.13104 121.05774,121.05774 0 0 0 128.56014,803.07517 Z"
       id="path10641-9"
       inkscape:connector-curvature="0" />
    <g
       id="g10643"
       transform="matrix(0.56957688,0,0,0.64063812,-526.91926,229.43172)">
      <g
         style="fill:#ff9955;stroke:#ff9955;stroke-width:2.31075072;stroke-miterlimit:4;stroke-dasharray:none"
         id="back-6"
         transform="matrix(0.88715888,0,0,0.72881042,968.92172,932.57237)">
        <path
           id="path7-7"
           d="m 397.7,235.8 c 0,0 0,-0.1 0.1,-0.1 0,0 0,-0.1 0,-0.1 0,-0.1 0,-0.1 0,-0.2 0,0 0,0 0,0 l -8.1,-54.8 c 3.4,-1 5.8,-4.1 5.8,-7.7 0,-4.4 -3.6,-8.1 -8.1,-8.1 -0.1,0 -0.2,0 -0.3,0 l -8.7,-53 c 0,0 0,0 0,0 0,-0.1 0,-0.1 -0.1,-0.1 0,0 0,-0.1 0,-0.1 0,0 -0.1,-0.1 -0.1,-0.1 0,0 -0.1,-0.1 -0.1,-0.1 0,0 0,0 0,0 L 344.5,90.1 c 0.1,-0.4 0.1,-0.7 0.1,-1.1 0,-4.4 -3.6,-8.1 -8.1,-8.1 -0.8,0 -1.7,0.1 -2.4,0.4 L 291.3,24.5 c 0,0 -0.1,0 -0.1,-0.1 0,0 -0.1,-0.1 -0.1,-0.1 0,0 -0.1,0 -0.1,-0.1 0,0 -0.1,0 -0.1,0 -0.1,0 -0.1,0 -0.2,0 0,0 -0.1,0 -0.1,0 L 256.1,31 c -1,-3.3 -4.1,-5.6 -7.7,-5.6 -3.3,0 -6,1.9 -7.3,4.7 L 172.9,7.4 c 0,0 0,0 0,0 0,0 0,0 0,0 0,0 0,0 0,0 -0.1,0 -0.1,0 -0.2,0 0,0 -0.1,0 -0.1,0 -0.1,0 -0.1,0 -0.2,0 0,0 -0.1,0 -0.1,0 0,0 0,0 0,0 l 0,0 -102.6,56.9 c 0,0 0,0 0,0 0,0 0,0 -0.1,0 0,0 0,0 -0.1,0.1 0,0 0,0 0,0 0,0 0,0 0,0 0,0 0,0 0,0.1 0,0 0,0 0,0 l -46.9,99.1 c -0.3,-0.1 -0.7,-0.2 -1,-0.3 l 5,-36.9 c 0.1,-0.4 -0.2,-0.7 -0.6,-0.8 -0.4,-0.1 -0.7,0.2 -0.8,0.6 l -5,37 c -0.1,0 -0.2,0 -0.4,0 -4.4,0 -8.1,3.6 -8.1,8.1 0,3.7 2.5,6.8 5.9,7.8 L 7.4,232.8 c 0,0 0,0.1 0,0.1 0,0 0,0.1 0,0.1 0,0 0,0.1 0,0.1 0,0 0,0.1 0,0.1 l 26,48 c -2.1,1.5 -3.4,3.9 -3.4,6.6 0,4.4 3.6,8.1 8.1,8.1 0.9,0 1.8,-0.2 2.6,-0.4 l 16.1,33.9 c 0.1,0.3 0.4,0.4 0.6,0.4 0.1,0 0.2,0 0.3,-0.1 0.4,-0.2 0.5,-0.6 0.3,-0.9 L 42,294.9 c 0.3,-0.2 0.6,-0.4 0.9,-0.6 l 74.9,80 c 0,0 0,0 0,0 0,0 0,0 0,0 0,0 0,0 0,0 0,0 0,0 0.1,0 0,0 0,0 0,0 0,0 0,0 0.1,0 0,0 0,0 0,0 0,0 0,0 0.1,0 0,0 0,0 0,0 l 115,22.9 c 0,0 0.1,0 0.1,0 0.1,0 0.1,0 0.2,0 0,0 0,0 0,0 0,0 0.1,0 0.1,0 0,0 0.1,0 0.1,0 0,0 0,0 0,0 0,0 0,0 0,0 l 58.1,-42.4 c 1.5,1.7 3.6,2.8 6.1,2.8 4.4,0 8.1,-3.6 8.1,-8.1 0,-0.1 0,-0.1 0,-0.2 l 34.9,-3.8 c 0,0 0,0 0,0 0.1,0 0.1,0 0.2,-0.1 0,0 0,0 0.1,0 0.1,0 0.1,-0.1 0.2,-0.1 0,0 0,0 0,0 0,-0.1 0.1,-0.1 0.1,-0.2 L 364,280.4 c 0.2,0 0.4,0 0.7,0 4.4,0 8.1,-3.6 8.1,-8.1 0,-1.8 -0.6,-3.5 -1.6,-4.9 l 26.6,-31.6 c 0,0 0,0 0,0 -0.1,0.1 -0.1,0 -0.1,0 z m -1.4,-0.5 -26.3,31.2 c -0.5,-0.5 -1.1,-0.9 -1.8,-1.2 l 18.7,-84.4 c 0.2,0 0.3,0 0.5,0 0.3,0 0.5,0 0.8,0 l 8.1,54.4 z M 210.7,351.8 c -0.2,-1.4 -0.8,-2.7 -1.6,-3.7 l 67,-61.3 c 1.4,1.3 3.3,2.1 5.4,2.1 0.4,0 0.8,0 1.2,-0.1 l 12.6,53.2 c -3.1,1 -5.3,3.8 -5.5,7.2 l -79.1,2.6 z m -2.5,-4.8 c -1.4,-1.3 -3.3,-2.1 -5.4,-2.1 -0.5,0 -0.9,0 -1.4,0.1 l -23,-77 c 2.1,-0.7 3.8,-2.3 4.7,-4.3 l 90.5,16.3 c 0,0.2 0,0.5 0,0.7 0,1.8 0.6,3.5 1.7,4.9 L 208.2,347 Z M 42.8,281.3 75,228.9 c 1.1,0.5 2.3,0.9 3.6,0.9 0.7,0 1.3,-0.1 2,-0.3 l 26.9,77.3 c -1.9,0.7 -3.4,2 -4.4,3.8 L 45.8,290 c 0.2,-0.7 0.3,-1.4 0.3,-2.2 0.1,-2.6 -1.3,-5 -3.3,-6.5 z m 292.7,-184.5 -4.3,77.4 c -0.2,0 -0.3,0 -0.5,0 -1.8,0 -3.4,0.6 -4.7,1.5 l -66,-67 c 1.2,-1.4 1.9,-3.2 1.9,-5.2 0,-0.3 0,-0.7 -0.1,-1 l 66.6,-14.1 c 0,0.1 0,0.3 0,0.4 0.1,4.1 3.2,7.5 7.1,8 z M 195.8,348.9 118,316.3 c 0.2,-0.6 0.3,-1.3 0.3,-2 0,-1.6 -0.5,-3.1 -1.3,-4.4 l 53.7,-43.3 c 1.4,1.1 3.1,1.8 5.1,1.8 0.4,0 0.8,0 1.3,-0.1 l 23,77 c -1.9,0.7 -3.4,2 -4.3,3.6 z M 325,176.6 c -1.4,1.5 -2.3,3.4 -2.3,5.6 0,0.2 0,0.4 0,0.6 l -70.6,11 c -0.8,-2.5 -2.9,-4.4 -5.4,-5.1 l 7.1,-77.1 c 0,0 0,0 0,0 1.9,0 3.7,-0.7 5.1,-1.8 l 66.1,66.8 z m -149.3,75.8 c -0.2,0 -0.5,0 -0.7,0 l -14.2,-90.7 c 2.1,-0.5 3.9,-1.9 5,-3.7 l 71.7,34.5 c -0.6,1.2 -1,2.5 -1,3.9 0,1.9 0.7,3.6 1.7,5 L 181.7,255 c -1.5,-1.6 -3.6,-2.6 -6,-2.6 z m 76.8,-141 -7.1,77 c -0.3,0 -0.6,0 -0.8,0 -2.5,0 -4.8,1.2 -6.3,3 l -71.9,-34.6 c 0.3,-0.9 0.5,-1.8 0.5,-2.8 0,-1.1 -0.2,-2.2 -0.6,-3.1 L 247.2,108 c 1.2,1.7 3.1,3 5.3,3.4 z m -99.3,48.2 c 1.5,1.4 3.5,2.3 5.7,2.3 0.2,0 0.4,0 0.5,0 l 14.2,90.8 c -2.6,0.7 -4.6,2.6 -5.5,5.1 L 86.3,224.1 c 0.2,-0.8 0.4,-1.6 0.4,-2.4 0,-1.7 -0.5,-3.3 -1.5,-4.6 l 68,-57.5 z m -67.4,65.8 82,33.8 c -0.1,0.4 -0.1,0.8 -0.1,1.2 0,2 0.7,3.9 2,5.3 l -53.6,43.1 c -1.5,-1.6 -3.6,-2.5 -5.9,-2.5 -0.5,0 -0.9,0 -1.4,0.1 L 81.9,229 c 1.7,-0.7 3,-2 3.9,-3.6 z m 96.8,30.8 56.6,-53.7 c 1.4,1.3 3.3,2 5.3,2 1.3,0 2.5,-0.3 3.5,-0.8 l 29.7,70 c -1.9,1 -3.4,2.8 -4,5 l -90.3,-16.3 c 0.2,-0.6 0.2,-1.3 0.2,-2 0.2,-1.5 -0.3,-3 -1,-4.2 z m 99,16.5 c -0.9,0 -1.7,0.1 -2.5,0.4 l -29.8,-70.2 c 2,-1.5 3.3,-3.8 3.3,-6.5 0,-0.4 0,-0.8 -0.1,-1.2 l 70.5,-11 c 0.6,2.2 2.1,4.1 4.1,5.1 l -42.5,83.9 c -0.9,-0.3 -1.9,-0.5 -3,-0.5 z m -35.1,-166.1 -80.9,42.9 c -1.3,-2.1 -3.6,-3.5 -6.2,-3.6 L 158,67 c 2.6,-0.3 4.9,-1.8 6.1,-4 l 82.3,37.8 c -0.3,0.8 -0.5,1.8 -0.5,2.7 0,1.1 0.2,2.2 0.6,3.1 z m -95,-41.9 c 1.3,1.3 3.1,2.1 5.1,2.3 l 1.5,78.9 c -2.8,0.3 -5.2,2 -6.4,4.5 L 88.8,126.2 c 0.2,-0.7 0.3,-1.4 0.3,-2.2 0,-1.7 -0.6,-3.4 -1.5,-4.7 L 151.5,64.7 Z M 81.6,132 c 3,-0.2 5.5,-2 6.7,-4.5 l 62.9,24.2 c -0.2,0.7 -0.3,1.4 -0.3,2.2 0,1.7 0.5,3.3 1.5,4.6 l -68,57.4 c -1.3,-1.2 -2.9,-2.1 -4.8,-2.3 l 2,-81.6 z m 36,185.7 77.6,32.6 c -0.3,0.8 -0.5,1.7 -0.5,2.7 0,0.4 0,0.7 0.1,1.1 l -75.9,18.9 -6.4,-50.9 c 2.2,-0.7 4.1,-2.3 5.1,-4.4 z m 168.3,-43.8 42.5,-84 c 0.8,0.2 1.5,0.4 2.4,0.4 1,0 2,-0.2 2.8,-0.5 l 28.7,75 c -3.3,1 -5.7,4.1 -5.7,7.7 0,0.1 0,0.1 0,0.2 l -67,6.6 c -0.5,-2.3 -1.9,-4.2 -3.7,-5.4 z m 78.7,-9.6 c -0.3,0 -0.6,0 -0.9,0.1 l -28.8,-75.3 c 2.4,-1.4 3.9,-4 3.9,-6.9 0,-0.1 0,-0.3 0,-0.4 l 41,-6.3 c 0.9,2.6 3.1,4.6 5.7,5.2 l -18.6,84.1 c -0.7,-0.3 -1.5,-0.5 -2.3,-0.5 z m 14.8,-91.5 c 0,0.4 0,0.8 0.1,1.2 l -40.9,6.3 c -0.7,-3 -3,-5.3 -6,-6 l 4.3,-77.5 c 1.7,-0.1 3.2,-0.7 4.5,-1.6 l 41.4,71 c -2,1.5 -3.4,3.9 -3.4,6.6 z m -50.6,-85.9 -67.1,14.2 c -1,-3.3 -4,-5.7 -7.6,-5.7 l -4.2,-54.2 c 2.2,-0.4 4.1,-1.6 5.3,-3.3 L 331,83.1 c -1.2,1.1 -1.9,2.3 -2.2,3.8 z m -80.4,-45.5 4.2,54.2 c -2.4,0.4 -4.5,1.9 -5.7,3.9 L 164.6,61.7 c 0.3,-0.8 0.5,-1.8 0.5,-2.7 0,-0.5 -0.1,-1 -0.1,-1.5 L 240.9,36 c 1.1,3.1 4,5.4 7.5,5.4 z m -91.3,9.5 c -4.4,0 -8,3.5 -8,7.9 L 73.1,64 171.4,9.6 158.7,51.2 c -0.5,-0.2 -1,-0.3 -1.6,-0.3 z m -7.9,9.3 c 0.2,1.3 0.7,2.4 1.4,3.4 l -63.9,54.5 c -1.5,-1.4 -3.4,-2.3 -5.6,-2.3 -0.3,0 -0.5,0 -0.8,0 l -9.4,-50.4 78.3,-5.2 z m -69.1,71.8 -2,81.7 c -2,0.1 -3.8,1 -5.1,2.3 L 26.2,175.9 c 0.9,-1.3 1.5,-2.9 1.5,-4.7 0,-1.6 -0.5,-3.1 -1.3,-4.3 l 48.7,-37.5 c 1.3,1.4 3.1,2.3 5,2.6 z M 25.3,176.9 72.1,217 c -0.9,1.3 -1.5,2.9 -1.5,4.7 0,2.6 1.3,5 3.3,6.5 l -32.3,52.5 c -1.1,-0.5 -2.2,-0.8 -3.5,-0.8 -0.3,0 -0.5,0 -0.8,0 L 21.6,179 c 1.4,-0.4 2.6,-1.1 3.7,-2.1 z m 20,114.5 57.2,20.5 c -0.3,0.8 -0.4,1.6 -0.4,2.5 0,4.4 3.6,8.1 8.1,8.1 0.3,0 0.6,0 0.9,0 l 6.2,49.4 -73.4,-78.4 c 0.6,-0.7 1.1,-1.4 1.4,-2.1 z m 149.8,64 c 1.1,3.2 4.1,5.6 7.7,5.6 1.5,0 3,-0.4 4.2,-1.2 l 24.8,35.9 -110.2,-21.9 73.5,-18.4 z m 107.5,-12.3 c -1.3,-1 -3,-1.6 -4.8,-1.6 -0.4,0 -0.8,0 -1.2,0.1 L 284,288.4 c 3.2,-1.1 5.5,-4.1 5.5,-7.6 0,0 0,-0.1 0,-0.1 l 67,-6.6 c 0.4,1.9 1.4,3.5 2.8,4.6 l -56.7,64.4 z m 74.6,-230.8 8.6,52.7 c -0.6,0.1 -1.2,0.3 -1.7,0.6 L 342.6,94.3 c 0.7,-0.8 1.3,-1.8 1.7,-2.8 l 32.9,20.8 z m -86.8,-86.7 42.4,56.1 c -0.3,0.1 -0.5,0.3 -0.8,0.5 L 255.8,36.7 c 0.5,-1 0.7,-2.2 0.7,-3.4 0,-0.4 0,-0.7 -0.1,-1 l 34,-6.7 z m -49.9,9.1 -75.9,21.5 c -0.8,-2.1 -2.4,-3.8 -4.5,-4.6 l 13,-42.6 67.6,22.4 c -0.2,0.6 -0.3,1.3 -0.3,2 0,0.4 0,0.8 0.1,1.3 z m -170.8,32.4 9.2,49.1 c -3.4,0.9 -5.9,4.1 -5.9,7.8 0,1.6 0.5,3.1 1.3,4.3 l -48.7,37.5 c -0.5,-0.6 -1.2,-1.1 -1.8,-1.5 L 69.7,67.1 Z m -60.9,165.7 10,-53.6 c 0.3,0 0.5,0 0.8,0 0.2,0 0.4,0 0.5,0 l 15.8,100.9 c -0.4,0.1 -0.8,0.3 -1.2,0.5 L 8.8,232.8 Z m 224.7,162.9 -25.4,-36.8 c 1.6,-1.4 2.6,-3.5 2.7,-5.8 l 79,-2.6 c 0.1,1.2 0.5,2.2 1.1,3.2 l -57.4,42 z m 106.7,-51.5 -34.4,3.8 c -0.3,-1.5 -1,-2.9 -2.1,-4 l 57,-64.6 c 0.6,0.3 1.2,0.6 1.8,0.7 l -22.3,64.1 z"
           inkscape:connector-curvature="0"
           style="opacity:0.7;fill:#ff9955;stroke:#ff9955;stroke-width:2.31075072;stroke-miterlimit:4;stroke-dasharray:none" />
      </g>
      <path
         style="fill:#ff6600;stroke:#ff6600;stroke-width:3.71613169;stroke-miterlimit:4;stroke-dasharray:none"
         inkscape:connector-curvature="0"
         d="m 1321.2125,1098.3039 c -0.089,0 -0.089,0 -0.1774,0 l -15.1704,-79.9505 c 3.105,-0.656 5.4116,-2.9153 5.4116,-5.6848 0,-3.2067 -3.1937,-5.9033 -7.186,-5.9033 -2.0404,0 -3.9035,0.7288 -5.2342,1.8949 l -66.3595,-54.51504 c 0.9759,-1.02034 1.5082,-2.25931 1.5082,-3.57117 0,-3.20677 -3.1938,-5.90337 -7.186,-5.90337 -3.2825,0 -6.0327,1.82203 -6.9198,4.29998 l -90.6677,-10.49487 c 0,0 0,0 0,-0.0729 0,-3.20676 -3.1937,-5.90336 -7.186,-5.90336 -3.9922,0 -7.1859,2.62372 -7.1859,5.90336 0,0.58305 0.089,1.1661 0.2661,1.67627 l -51.8988,19.45924 c -1.242,-1.60339 -3.4599,-2.6966 -5.944,-2.6966 -3.9035,0 -7.1859,2.62371 -7.1859,5.90336 0,1.02034 0.3548,2.04067 0.9758,2.91524 l -14.993,9.83894 c -1.3307,-1.09321 -3.105,-1.74914 -5.0568,-1.74914 -3.9035,0 -7.1859,2.62372 -7.1859,5.90336 0,1.74915 0.8871,3.27965 2.3066,4.29998 l -30.96188,35.34732 c -1.06459,-0.5102 -2.21789,-0.7288 -3.45992,-0.7288 -3.9035,0 -7.18598,2.6237 -7.18598,5.9034 0,2.6237 2.12918,4.883 5.0568,5.6118 l -13.30738,66.3946 c -0.0887,0 -0.17743,0 -0.26615,0 -3.9035,0 -7.18599,2.6238 -7.18599,5.9034 0,3.2068 3.19378,5.9034 7.18599,5.9034 0.79844,0 1.6856,-0.1458 2.39533,-0.3644 l 37.79298,60.5641 c -2.1292,1.0203 -3.5486,2.9152 -3.5486,5.1017 0,3.2067 3.1937,5.9033 7.1859,5.9033 2.3954,0 4.5246,-0.9474 5.7666,-2.4779 l 42.5836,25.727 c -0.9759,1.0203 -1.5969,2.2593 -1.5969,3.644 0,3.2068 3.1938,5.9034 7.186,5.9034 3.1938,0 5.944,-1.7491 6.8311,-4.1542 l 17.2109,5.5389 c -0.1774,0.4373 -0.1774,0.9475 -0.1774,1.3848 0,3.2068 3.1937,5.9034 7.186,5.9034 3.3712,0 6.1214,-1.895 6.9198,-4.4458 l 56.9556,5.3932 c 0.089,3.2068 3.1938,5.7576 7.0973,5.7576 3.9035,0 7.186,-2.6237 7.186,-5.9034 0,-0.6559 -0.089,-1.2389 -0.3549,-1.822 l 82.5058,-32.7236 c 1.242,1.6034 3.4599,2.6237 5.9439,2.6237 3.9035,0 7.186,-2.6237 7.186,-5.9033 0,-1.9678 -1.242,-3.7898 -3.105,-4.8102 l 43.5595,-69.3827 c 0.7097,0.2186 1.5969,0.3644 2.3953,0.3644 3.9035,0 7.186,-2.6237 7.186,-5.9034 0,-3.2796 -3.1938,-5.9033 -7.0973,-5.9033 z m -50.4793,79.7318 c -3.7261,0.1458 -6.7424,2.6966 -6.7424,5.8305 0,0.2915 0,0.5102 0.089,0.7288 l -61.6576,13.5559 c -0.1774,-0.2915 -0.3548,-0.5831 -0.5323,-0.8746 l 68.3113,-46.7167 c 0.8871,0.583 1.9517,1.0203 3.0163,1.1661 l -2.484,26.31 z m -91.2887,38.5541 c -1.0646,-0.5102 -2.3066,-0.8017 -3.5486,-0.8017 -3.3712,0 -6.1214,1.8949 -6.9199,4.4457 l -56.9556,-5.3932 c 0,-0.073 0,-0.1457 0,-0.2186 l 77.0942,-12.3169 c 0.3548,0.8746 0.9758,1.6034 1.6856,2.2593 l -11.3557,12.0254 z m -109.7415,-15.0135 -31.6716,-19.0948 35.9299,18.0016 c 0,0 -0.089,0 -0.089,0 -1.5969,-0.073 -3.0163,0.3644 -4.1696,1.0932 z m -32.47,-218.93465 15.8801,-15.08638 c 1.0646,0.65593 2.3953,1.02033 3.7261,1.09322 l 5.6778,36.51341 c -3.0164,0.6559 -5.323,2.9152 -5.323,5.6847 0,0.2187 0,0.3644 0,0.5831 l -58.72989,11.1508 c -0.26615,-0.7289 -0.70973,-1.3119 -1.33074,-1.895 l 38.32523,-36.44047 c 0.7098,-0.43729 1.3308,-1.02034 1.7744,-1.60338 z m 104.8621,-27.25751 c 0.1775,0.58304 0.4436,1.16609 0.8872,1.67626 l -73.7229,49.5591 c -1.242,-0.9474 -2.9276,-1.6034 -4.8794,-1.6034 l -5.6778,-36.4405 c 3.1938,-0.58304 5.5891,-2.91524 5.5891,-5.68472 l 77.8038,-7.50674 z m 77.7152,-3.64406 c 0.621,2.6966 3.5486,4.73727 7.0085,4.73727 0.621,0 1.242,-0.0729 1.7743,-0.21864 l 11.888,24.1965 c -1.1534,0.51017 -2.0405,1.31186 -2.6615,2.18644 l -81.9735,-27.25751 c 0.089,-0.29153 0.1774,-0.65593 0.1774,-1.02034 l 63.7868,-2.62372 z m 81.3524,66.32172 -18.8077,39.5744 c -0.5323,-0.1457 -1.1534,-0.1457 -1.6856,-0.1457 -0.5323,0 -1.1534,0.073 -1.6857,0.1457 l -31.4941,-66.90476 c 0.8872,-0.3644 1.5969,-0.94745 2.2179,-1.60338 l 47.3743,22.52024 c -0.089,0.3644 -0.089,0.7288 -0.089,1.0932 -0.089,2.3322 1.6856,4.4458 4.1696,5.3203 z m -100.5151,178.0484 c -0.9759,-0.8017 -2.3066,-1.3118 -3.726,-1.4576 l 1.9517,-65.5201 c 1.9518,-0.1457 3.6374,-0.9474 4.7907,-2.1864 l 63.8754,18.366 c 0,0.2187 -0.089,0.5102 -0.089,0.7288 0,1.3119 0.5323,2.478 1.3307,3.4255 l -68.1338,46.6438 z m -95.8131,13.0457 c -0.089,0 -0.2662,0 -0.3549,0 l -8.1619,-36.0761 c 1.6856,-0.5102 3.1051,-1.4576 3.9035,-2.6966 l 88.6272,28.6423 c -0.1774,0.4372 -0.1774,0.9474 -0.1774,1.3847 0,0.1458 0,0.2186 0,0.3644 l -77.0054,12.3898 c -0.9759,-2.3322 -3.6374,-4.0085 -6.8311,-4.0085 z m 39.3011,-250.9294 c 1.242,0.94745 3.0163,1.60338 4.8794,1.60338 0.5323,0 0.9758,-0.0729 1.4194,-0.14576 l 25.7276,60.85568 c -1.7743,0.7288 -3.105,2.0407 -3.6373,3.5712 l -101.0474,-13.1186 c 0,-0.073 0,-0.073 0,-0.1458 0,-1.1661 -0.3549,-2.1864 -1.0646,-3.061 l 73.7229,-49.5591 z m 50.9229,236.3532 c -2.3953,0.2187 -4.3471,1.3848 -5.5004,2.9881 l -88.6271,-28.7151 c 0.089,-0.4373 0.1774,-0.8746 0.1774,-1.3847 0,-0.656 -0.1774,-1.3119 -0.3549,-1.8949 l 92.3533,-38.1897 c 1.0646,0.8746 2.3953,1.3847 3.9035,1.6034 l -1.9518,65.5929 z m -123.8474,-182.0568 101.0474,13.1186 c 0,0.073 0,0.073 0,0.1457 0,1.3119 0.5323,2.478 1.3308,3.4254 l -67.9564,52.693 c -1.242,-0.8017 -2.8389,-1.3118 -4.5245,-1.3118 -0.621,0 -1.1533,0.073 -1.7743,0.2186 l -31.4942,-64.7912 c 1.5969,-0.8017 2.8389,-2.0407 3.3712,-3.4983 z m 120.2988,108.5927 -83.5704,-32.8693 c 0.2662,-0.5831 0.3549,-1.1661 0.3549,-1.8221 0,-1.3118 -0.5323,-2.4779 -1.3308,-3.4254 l 67.9564,-52.693 c 1.242,0.8017 2.8389,1.3119 4.5245,1.3119 0.089,0 0.089,0 0.1775,0 l 16.3237,86.0725 c -2.0405,0.5831 -3.6374,1.822 -4.4358,3.4254 z m -89.9579,-28.8609 c 2.3066,-0.1457 4.3471,-1.1661 5.5004,-2.6237 l 83.9252,33.0151 c 0,0.2187 -0.089,0.4373 -0.089,0.656 0,1.0932 0.3548,2.1135 0.9758,2.9152 l -91.9983,38.0439 c -0.9759,-1.239 -2.5728,-2.1135 -4.3471,-2.478 l 6.0327,-69.5285 z m 96.6116,25.144 c -0.1775,0 -0.2662,0 -0.3549,0 l -16.3237,-86.0725 c 1.6856,-0.4373 3.105,-1.3119 4.0809,-2.5509 l 88.361,32.7965 c -0.1774,0.5102 -0.2661,1.0932 -0.2661,1.6763 0,1.239 0.4436,2.4051 1.242,3.3525 l -71.1501,52.8388 c -1.5082,-1.239 -3.4599,-2.0407 -5.5891,-2.0407 z m 76.3844,-57.1387 -88.3611,-32.7965 c 0.1775,-0.5102 0.2662,-1.0932 0.2662,-1.6763 0,-1.0203 -0.3549,-2.0406 -0.9759,-2.9152 l 53.407,-33.23377 c 1.3307,1.09321 3.105,1.74914 5.0568,1.74914 0.5323,0 1.1533,-0.0729 1.6856,-0.14576 l 31.4054,66.90479 c -0.8872,0.5102 -1.863,1.239 -2.484,2.1136 z m -36.6397,-71.78787 -53.407,33.16087 c -1.3307,-1.0932 -3.105,-1.7491 -5.0568,-1.7491 -0.5323,0 -0.9759,0.073 -1.4194,0.1457 l -25.7276,-60.85565 c 1.242,-0.51017 2.3066,-1.31186 3.0163,-2.33219 l 81.9735,27.25751 c -0.1775,0.43728 -0.2662,0.94745 -0.2662,1.45762 -0.089,1.02033 0.2662,2.04067 0.8872,2.91524 z M 1064.38,1016.6771 c 0.621,0 1.1533,-0.073 1.7743,-0.2187 l 31.4942,64.7913 c -2.1292,1.0203 -3.6374,2.9152 -3.6374,5.1017 0,0.073 0,0.073 0,0.1457 l -73.4567,9.4017 c -0.4436,-1.3848 -1.5082,-2.478 -2.9277,-3.2797 l 44.5354,-76.2335 c 0.7097,0.2186 1.4195,0.2915 2.2179,0.2915 z m -43.5595,80.7522 73.4568,-9.4017 c 0.7097,2.0407 2.8389,3.6441 5.4116,4.0814 l -5.9439,69.5285 c -1.4195,0.073 -2.7502,0.4373 -3.8148,1.0203 l -70.7066,-61.4387 c 0.9759,-1.0203 1.5969,-2.2593 1.5969,-3.7169 0,0 0,0 0,-0.073 z m 253.3726,42.7812 c -2.7502,0.1457 -5.1455,1.6033 -6.1214,3.644 l -63.3431,-18.2202 c 0.3548,-0.7289 0.621,-1.5306 0.621,-2.3322 0,-0.8746 -0.2662,-1.7492 -0.7098,-2.478 l 71.4163,-52.9845 c 0.8872,0.6559 2.0405,1.0932 3.2825,1.3118 l -5.1455,71.0591 z M 1038.1201,979.362 c -0.089,-0.94745 -0.3549,-1.82203 -0.9759,-2.62372 l 12.0654,-8.01691 -11.0895,10.64063 z m -39.21241,45.1134 c 0,-0.1458 0,-0.2916 0,-0.3644 l 58.81861,-11.1508 c 0.5323,1.1661 1.5082,2.1864 2.7502,2.8423 l -44.5354,76.1607 c -0.7097,-0.2186 -1.4194,-0.2915 -2.2179,-0.2915 -0.2661,0 -0.5323,0 -0.7984,0.073 l -18.63034,-61.8032 c 2.66148,-0.8745 4.61323,-2.9881 4.61323,-5.466 z m 18.98521,77.8369 70.6178,61.4387 c -0.9758,0.9475 -1.5968,2.1865 -1.6856,3.4983 l -60.4155,3.9356 c -0.9759,-1.9678 -3.2825,-3.4254 -6.0327,-3.5712 l -5.3229,-64.281 c 1.0646,-0.1458 2.0404,-0.5102 2.8389,-1.0204 z m 8.8716,72.6624 c 0.1774,-0.5102 0.2661,-0.9474 0.2661,-1.4576 0,-0.2186 0,-0.5102 -0.089,-0.7288 l 60.0607,-3.9356 c 0.7097,2.6237 3.5486,4.5915 7.0085,4.5915 0.1775,0 0.3549,0 0.5323,0 l 8.1619,36.0761 c -1.3308,0.3644 -2.4841,1.0204 -3.3712,1.8949 l -72.5696,-36.4405 z m 252.2192,-33.5981 c -0.8871,-0.5102 -1.863,-0.9475 -2.9276,-1.0933 l 5.0568,-71.1319 c 1.1533,-0.073 2.3066,-0.3644 3.1938,-0.8745 l 31.6716,31.849 c -1.242,1.0203 -1.9518,2.4779 -1.9518,4.0084 0,1.4577 0.621,2.7695 1.6856,3.7899 l -36.7284,33.4524 z m 38.5027,-42.1982 -31.6715,-31.849 c 1.242,-1.0203 1.9517,-2.4779 1.9517,-4.0084 0,-2.1865 -1.5081,-4.1543 -3.726,-5.1017 l 18.8964,-39.7202 c 0.3549,0.073 0.621,0.073 0.9759,0.073 l 15.1704,79.9505 c -0.5323,0.1458 -1.0646,0.3644 -1.5969,0.6559 z m -19.7836,-89.0606 -47.0194,-22.37448 c 0.3548,-0.72881 0.5323,-1.45762 0.5323,-2.25931 0,-3.20677 -3.1938,-5.90337 -7.186,-5.90337 -0.621,0 -1.242,0.0729 -1.7743,0.21865 l -11.888,-24.19651 c 0.2662,-0.14576 0.5323,-0.29152 0.7985,-0.43729 l 66.6256,54.73371 c -0.089,0.1457 -0.089,0.2186 -0.089,0.2186 z m -80.6427,-59.83534 -61.0366,2.55084 c -0.621,-2.6966 -3.5486,-4.81015 -7.0085,-4.81015 -2.0405,0 -3.9922,0.72881 -5.2343,1.89491 l -15.3478,-8.81861 c 0.2661,-0.3644 0.4436,-0.72881 0.5323,-1.09321 l 88.0949,10.27622 z m -101.0474,-8.74572 c 1.242,1.67626 3.4599,2.76948 6.0326,2.76948 2.0405,0 3.9923,-0.72881 5.2343,-1.89491 l 15.3478,8.81861 c -0.5323,0.80169 -0.7984,1.67626 -0.7984,2.62371 l -77.7151,7.43387 c 0,-0.14576 -0.089,-0.21864 -0.089,-0.3644 l 51.9875,-19.38636 z m -84.9899,44.02015 c 0.1775,0 0.4436,0 0.6211,0 l -26.7035,25.36261 22.8,-25.94566 c 0.9758,0.3644 2.1291,0.58305 3.2824,0.58305 z m -39.47853,44.74891 c 0.0887,0 0.0887,0 0.17743,0 0.26615,0 0.5323,0 0.70973,0 l 18.63037,61.8032 c -2.6615,0.8745 -4.5245,2.9881 -4.5245,5.466 0,0.073 0,0.073 0,0.1458 l -23.59847,2.9881 c -0.70973,-1.8949 -2.48404,-3.4254 -4.79066,-3.9355 l 13.3961,-66.4676 z m -11.44435,76.8167 c 1.86304,-1.0933 3.10506,-2.8424 3.10506,-4.8102 0,-0.073 0,-0.073 0,-0.1457 l 23.59842,-2.9882 c 0.7984,2.3322 3.3712,4.0085 6.3875,4.2271 l 5.323,64.2811 c -0.1774,0 -0.3549,0.073 -0.5323,0.073 l -37.88168,-60.637 z m 100.07148,96.4216 14.993,7.5067 -14.1945,-4.5915 c 0,-0.073 0,-0.1457 0,-0.2186 0,-0.9475 -0.2662,-1.8949 -0.7985,-2.6966 z m 100.7813,13.9931 11.2669,-12.0253 c 1.0646,0.5101 2.3066,0.8017 3.5486,0.8017 3.9035,0 7.186,-2.6238 7.186,-5.9034 0,-0.2915 0,-0.5102 -0.089,-0.7288 l 58.9074,-12.9 -79.933,31.7033 c -0.2662,-0.3644 -0.5323,-0.6559 -0.8872,-0.9475 z m 91.7322,-39.3557 2.4841,-26.2372 c 3.726,-0.2186 6.7424,-2.7695 6.7424,-5.8305 0,-1.3118 -0.5323,-2.5508 -1.4195,-3.5711 l 36.6397,-33.3796 -43.4708,69.237 c -0.3549,-0.073 -0.7097,-0.2186 -0.9759,-0.2186 z"
         id="path10-3" />
    </g>
  </g>
</svg>
