<?xml version="1.0" encoding="UTF-8" standalone="no"?>
<!-- Generator: Adobe Illustrator 16.0.4, SVG Export Plug-In . SVG Version: 6.00 Build 0)  -->

<svg
   xmlns:dc="http://purl.org/dc/elements/1.1/"
   xmlns:cc="http://creativecommons.org/ns#"
   xmlns:rdf="http://www.w3.org/1999/02/22-rdf-syntax-ns#"
   xmlns:svg="http://www.w3.org/2000/svg"
   xmlns="http://www.w3.org/2000/svg"
   xmlns:sodipodi="http://sodipodi.sourceforge.net/DTD/sodipodi-0.dtd"
   xmlns:inkscape="http://www.inkscape.org/namespaces/inkscape"
   version="1.1"
   id="Capa_1"
   x="0px"
   y="0px"
   width="454.21701"
   height="22.4"
   viewBox="0 0 454.217 22.399999"
   enable-background="new 0 0 841.89 595.275"
   xml:space="preserve"
   sodipodi:docname="NetinstallBanner.svg"
   inkscape:version="0.92.3 (2405546, 2018-03-11)"><metadata
   id="metadata27"><rdf:RDF><cc:Work
       rdf:about=""><dc:format>image/svg+xml</dc:format><dc:type
         rdf:resource="http://purl.org/dc/dcmitype/StillImage" /><dc:title /></cc:Work></rdf:RDF></metadata><defs
   id="defs25" /><sodipodi:namedview
   pagecolor="#ffffff"
   bordercolor="#666666"
   borderopacity="1"
   objecttolerance="10"
   gridtolerance="10"
   guidetolerance="10"
   inkscape:pageopacity="0"
   inkscape:pageshadow="2"
   inkscape:window-width="1920"
   inkscape:window-height="1015"
   id="namedview23"
   showgrid="true"
   inkscape:zoom="0.7929108"
   inkscape:cx="-323.02795"
   inkscape:cy="-42.4183"
   inkscape:window-x="0"
   inkscape:window-y="36"
   inkscape:window-maximized="1"
   inkscape:current-layer="text840"><inkscape:grid
     type="xygrid"
     id="grid29"
     originx="-266.20799"
     originy="-239.99999" /></sodipodi:namedview>








<g
   aria-label="NETWORK INSTALL"
   style="font-style:normal;font-weight:normal;font-size:40px;line-height:1.25;font-family:sans-serif;letter-spacing:0px;word-spacing:0px;fill:#55a9a6;fill-opacity:1;stroke:none"
   id="text840"><path
     d="M 26.048,20.448 V 11.2 q 0,-3.3920004 -2.048,-5.5360004 -2.016,-2.176 -5.792,-2.176 h -6.464 q -3.7759999,0 -5.8239999,2.176 -2.016,2.144 -2.016,5.5360004 v 9.248 q 0,1.952 -1.952,1.952 Q 5.5313111e-8,22.4 5.5313111e-8,20.448 V 11.2 Q 5.5313111e-8,6.2719996 2.9440001,3.1359996 5.8880001,-3.8146973e-7 11.328,-3.8146973e-7 h 7.296 q 5.44,0 8.384,3.13599998146973 2.944,3.136 2.944,8.0640004 v 9.248 q 0,1.952 -1.952,1.952 -1.952,0 -1.952,-1.952 z"
     style="fill:#666666"
     id="path815" /><path
     d="m 45.799,3.4879996 q -3.296,0 -5.248,1.632 -1.952,1.632 -2.432,4.352 h 20.384 q 1.76,0 1.76,1.7280004 0,0.832 -0.48,1.28 -0.448,0.448 -1.28,0.448 H 38.119 q 0.48,2.72 2.432,4.352 1.952,1.632 5.248,1.632 h 15.232 q 1.76,0 1.76,1.76 0,1.728 -1.76,1.728 H 45.383 q -5.472,0 -8.416,-3.136 -2.912,-3.136 -2.912,-8.064 0,-4.9280004 2.912,-8.0640004 Q 39.911,-3.8146973e-7 45.383,-3.8146973e-7 h 15.648 q 1.76,0 1.76,1.72799998146973 0,1.76 -1.76,1.76 z"
     style="fill:#666666"
     id="path817" /><path
     d="M 93.153,3.4879996 H 81.889 V 20.448 q 0,1.952 -1.952,1.952 -1.92,0 -1.92,-1.952 V 3.4879996 H 66.753 q -1.76,0 -1.76,-1.76 0,-1.72799998146973 1.76,-1.72799998146973 h 26.4 q 1.76,0 1.76,1.72799998146973 0,1.76 -1.76,1.76 z"
     style="fill:#666666"
     id="path819" /><path
     d="M 101.5915,1.9519996 V 12.416 q 0,2.848 1.696,4.672 1.728,1.824 4.896,1.824 h 2.016 q 3.168,0 4.864,-1.824 1.728,-1.824 1.728,-4.704 V 1.9519996 q 0,-1.95199998146973 1.952,-1.95199998146973 1.952,0 1.952,1.95199998146973 V 12.384 q 0,2.88 1.696,4.704 1.696,1.824 4.896,1.824 h 1.984 q 3.2,0 4.896,-1.824 1.728,-1.824 1.728,-4.704 V 1.9519996 q 0,-1.95199998146973 1.92,-1.95199998146973 1.952,0 1.952,1.95199998146973 V 12.512 q 0,4.352 -2.592,7.136 -2.56,2.752 -7.36,2.752 h -2.816 q -5.824,0 -8.256,-4.224 -2.432,4.224 -8.288,4.224 h -2.816 q -4.8,0 -7.392,-2.752 -2.56,-2.784 -2.56,-7.136 V 1.9519996 q 0,-1.95199998146973 1.952,-1.95199998146973 1.952,0 1.952,1.95199998146973 z"
     style="fill:#666666"
     id="path821" /><path
     d="m 163.6435,-3.8146973e-7 q 5.472,0 8.384,3.13599998146973 2.944,3.136 2.944,8.0640004 0,4.928 -2.944,8.064 -2.912,3.136 -8.384,3.136 h -8.448 q -5.472,0 -8.416,-3.136 -2.912,-3.136 -2.912,-8.064 0,-4.9280004 2.912,-8.0640004 Q 149.7235,-3.8146973e-7 155.1955,-3.8146973e-7 Z M 169.0515,16.768 q 2.016,-2.176 2.016,-5.568 0,-3.3920004 -2.016,-5.5360004 -2.016,-2.176 -5.792,-2.176 h -7.648 q -3.776,0 -5.824,2.176 -2.016,2.144 -2.016,5.5360004 0,3.392 2.016,5.568 2.048,2.144 5.824,2.144 h 7.648 q 3.776,0 5.792,-2.144 z"
     style="fill:#666666"
     id="path823" /><path
     d="m 205.2385,20.448 v -1.696 q 0,-2.016 -1.152,-3.232 -1.152,-1.216 -3.424,-1.216 h -17.344 v 6.144 q 0,1.952 -1.952,1.952 -1.952,0 -1.952,-1.952 V 1.9519996 q 0,-1.95199998146973 1.952,-1.95199998146973 h 21.152 q 3.2,0 4.896,1.82399998146973 1.728,1.824 1.728,4.704 0,2.08 -0.928,3.6800004 -0.928,1.568 -2.688,2.336 1.728,0.672 2.656,2.208 0.96,1.536 0.96,3.488 v 2.208 q 0,1.952 -1.952,1.952 -1.952,0 -1.952,-1.952 z m -3.744,-16.9600004 h -18.176 V 10.816 h 18.176 q 1.792,0 2.752,-1.0240004 0.96,-1.024 0.96,-2.624 0,-1.632 -0.96,-2.656 -0.96,-1.024 -2.752,-1.024 z"
     style="fill:#666666"
     id="path825" /><path
     d="m 217.3185,12.832 v 7.616 q 0,1.952 -1.952,1.952 -1.952,0 -1.952,-1.952 V 1.9519996 q 0,-1.95199998146973 1.952,-1.95199998146973 1.952,0 1.952,1.95199998146973 v 7.392 h 10.976 l 11.712,-8.95999998 q 0.416,-0.38400000146973 1.248,-0.38400000146973 1.888,0 1.888,1.82399998146973 0,0.8 -0.96,1.472 l -10.208,7.7120004 10.56,7.904 q 1.024,0.8 1.024,1.568 0,1.92 -1.952,1.92 -0.832,0 -1.344,-0.416 l -12.032,-9.152 z"
     style="fill:#666666"
     id="path827" /><path
     d="m 258.1645,1.9519996 q 0,-1.95199998146973 1.952,-1.95199998146973 1.952,0 1.952,1.95199998146973 V 20.448 q 0,1.952 -1.952,1.952 -1.952,0 -1.952,-1.952 z"
     style="font-style:normal;font-variant:normal;font-weight:normal;font-stretch:normal;font-size:32px;font-family:SpaceColony-Medium;-inkscape-font-specification:SpaceColony-Medium;fill:#55a9a6;fill-opacity:1"
     id="path829" /><path
     d="M 292.8605,20.448 V 11.2 q 0,-3.3920004 -2.048,-5.5360004 -2.016,-2.176 -5.792,-2.176 h -6.464 q -3.776,0 -5.824,2.176 -2.016,2.144 -2.016,5.5360004 v 9.248 q 0,1.952 -1.952,1.952 -1.952,0 -1.952,-1.952 V 11.2 q 0,-4.9280004 2.944,-8.0640004 2.944,-3.13599998146973 8.384,-3.13599998146973 h 7.296 q 5.44,0 8.384,3.13599998146973 2.944,3.136 2.944,8.0640004 v 9.248 q 0,1.952 -1.952,1.952 -1.952,0 -1.952,-1.952 z"
     style="font-style:normal;font-variant:normal;font-weight:normal;font-stretch:normal;font-size:32px;font-family:SpaceColony-Medium;-inkscape-font-specification:SpaceColony-Medium;fill:#55a9a6;fill-opacity:1"
     id="path831" /><path
     d="m 307.3955,12.928 q -3.168,0 -4.864,-1.792 -1.664,-1.8240004 -1.664,-4.6720004 0,-2.848 1.664,-4.64 1.696,-1.82399998146973 4.864,-1.82399998146973 h 19.744 q 1.76,0 1.76,1.72799998146973 0,1.76 -1.76,1.76 h -19.328 q -1.472,0 -2.272,0.832 -0.768,0.8 -0.768,2.144 0,1.344 0.768,2.176 0.8,0.832 2.272,0.832 h 15.296 q 3.168,0 4.832,1.8240004 1.696,1.792 1.696,4.64 0,2.848 -1.696,4.672 -1.664,1.792 -4.832,1.792 h -20.48 q -1.76,0 -1.76,-1.728 0,-1.76 1.76,-1.76 h 20.064 q 1.472,0 2.24,-0.8 0.8,-0.832 0.8,-2.176 0,-1.344 -0.8,-2.176 -0.768,-0.832 -2.24,-0.832 z"
     style="font-style:normal;font-variant:normal;font-weight:normal;font-stretch:normal;font-size:32px;font-family:SpaceColony-Medium;-inkscape-font-specification:SpaceColony-Medium;fill:#55a9a6;fill-opacity:1"
     id="path833" /><path
     d="M 360.278,3.4879996 H 349.014 V 20.448 q 0,1.952 -1.952,1.952 -1.92,0 -1.92,-1.952 V 3.4879996 h -11.264 q -1.76,0 -1.76,-1.76 0,-1.72799998146973 1.76,-1.72799998146973 h 26.4 q 1.76,0 1.76,1.72799998146973 0,1.76 -1.76,1.76 z"
     style="font-style:normal;font-variant:normal;font-weight:normal;font-stretch:normal;font-size:32px;font-family:SpaceColony-Medium;-inkscape-font-specification:SpaceColony-Medium;fill:#55a9a6;fill-opacity:1"
     id="path835" /><path
     d="m 390.3605,20.448 v -4.896 h -22.144 v 4.896 q 0,1.952 -1.952,1.952 -1.952,0 -1.952,-1.952 V 11.2 q 0,-4.9280004 2.944,-8.0640004 2.944,-3.13599998146973 8.384,-3.13599998146973 h 7.296 q 5.44,0 8.384,3.13599998146973 2.944,3.136 2.944,8.0640004 v 9.248 q 0,1.952 -1.952,1.952 -1.952,0 -1.952,-1.952 z M 368.2165,11.2 v 1.024 h 22.144 V 11.2 q 0,-3.3920004 -2.048,-5.5360004 -2.016,-2.176 -5.792,-2.176 h -6.464 q -3.776,0 -5.824,2.176 -2.016,2.144 -2.016,5.5360004 z"
     style="font-style:normal;font-variant:normal;font-weight:normal;font-stretch:normal;font-size:32px;font-family:SpaceColony-Medium;-inkscape-font-specification:SpaceColony-Medium;fill:#55a9a6;fill-opacity:1"
     id="path837" /><path
     d="m 410.0155,22.4 q -5.44,0 -8.384,-3.136 -2.944,-3.136 -2.944,-8.064 V 1.9519996 q 0,-1.95199998146973 1.952,-1.95199998146973 1.952,0 1.952,1.95199998146973 V 11.2 q 0,3.392 2.016,5.568 2.048,2.144 5.824,2.144 h 13.088 q 1.76,0 1.76,1.76 0,0.832 -0.48,1.28 -0.448,0.448 -1.28,0.448 z"
     style="font-style:normal;font-variant:normal;font-weight:normal;font-stretch:normal;font-size:32px;font-family:SpaceColony-Medium;-inkscape-font-specification:SpaceColony-Medium;fill:#55a9a6;fill-opacity:1"
     id="path839" /><path
     d="m 438.953,22.4 q -5.44,0 -8.384,-3.136 -2.944,-3.136 -2.944,-8.064 V 1.9519996 q 0,-1.95199998146973 1.952,-1.95199998146973 1.952,0 1.952,1.95199998146973 V 11.2 q 0,3.392 2.016,5.568 2.048,2.144 5.824,2.144 h 13.088 q 1.76,0 1.76,1.76 0,0.832 -0.48,1.28 -0.448,0.448 -1.28,0.448 z"
     style="font-style:normal;font-variant:normal;font-weight:normal;font-stretch:normal;font-size:32px;font-family:SpaceColony-Medium;-inkscape-font-specification:SpaceColony-Medium;fill:#55a9a6;fill-opacity:1"
     id="path841" /></g>





</svg>